<?xml version="1.0" encoding="utf-8"?>
<!-- Generator: Adobe Illustrator 16.0.0, SVG Export Plug-In . SVG Version: 6.00 Build 0)  -->
<!DOCTYPE svg PUBLIC "-//W3C//DTD SVG 1.1//EN" "http://www.w3.org/Graphics/SVG/1.1/DTD/svg11.dtd">
<svg version="1.1" id="Layer_1" xmlns="http://www.w3.org/2000/svg" xmlns:xlink="http://www.w3.org/1999/xlink" x="0px" y="0px"
	 width="400px" height="200px" viewBox="0 0 400 200" enable-background="new 0 0 400 200" xml:space="preserve">
<g>
	<g>
		<path fill="#FFFFFF" d="M61.514,151.557c-11.125,0.055-22.252,0.149-33.376,0.139c-2.779-0.002-5.501-0.541-7.83-2.275
			c1.926-2.092,4.385-1.631,6.756-1.344c8.401,1.014,16.833,0.273,25.244,0.56c4.675,0.158,6.373-1.911,6.333-6.504
			c-0.12-13.905-0.142-27.815,0.011-41.723c0.052-4.741-1.935-6.43-6.458-6.339c-7.016,0.144-14.039,0.115-21.057-0.011
			c-2.558-0.045-5.291,0.267-7.273-2.007c9.498-2.145,19.121-0.617,28.681-0.931c8.097-0.265,7.958-0.061,8.144-8.067
			c0.214-9.254-0.428-18.488,0.826-27.771C63.239,42.495,77.04,29.232,92.194,30.1c14.792,0.848,26.725,10.682,28.921,25.609
			c0.865,10.667,0.074,21.355,0.415,32.024c0.155,4.897-3.277,4.965-6.475,5.076c-8.828,0.306-17.663,0.086-26.493,0.124
			c-6.223,0.026-12.449,0.13-18.667-0.023c-4.689-0.117-6.343,1.964-6.31,6.526c0.104,14.526,0.083,29.048,0.009,43.576
			C63.579,145.994,63.953,149.143,61.514,151.557z"/>
		<path fill="#FFFFFF" d="M23.863,92.051c10.248,0.055,20.5,0.292,30.742,0.073c4.288-0.092,6.068,0.888,5.985,5.654
			c-0.277,15.75-0.225,31.51-0.025,47.262c0.053,4.185-1.178,5.666-5.451,5.556c-11.606-0.301-23.238,0.342-34.806-1.177
			C6.942,145.24-0.07,133.111,1.184,116.348C2.019,105.191,12.453,94.013,23.863,92.051z"/>
		<path fill="#1C3E99" d="M121.538,87.726c-0.054,0.141-0.112,0.278-0.185,0.409c-0.073,0.252-0.16,0.498-0.292,0.721
			c-0.229,0.552-0.602,1.042-1.145,1.359c-0.161,0.125-0.331,0.239-0.531,0.32c-0.188,0.142-0.392,0.267-0.625,0.359
			c-0.826,0.473-1.974,0.662-3.539,0.644c-16.075-0.175-32.155,0.101-48.228-0.18c-4.764-0.084-6.153,1.28-6.092,6.053
			c0.229,18.03,0.024,36.063-0.019,54.099c18.258,0.061,36.521-0.062,54.772,0.301c5.034,0.098,5.952-1.746,5.928-6.242
			C121.484,126.29,121.515,107.009,121.538,87.726z"/>
		<path fill="#FFFFFF" d="M347.951,106.326c-0.002-1.381,0.312-2.926-0.999-3.932c-2.698-2.071-12.158,0.306-13.979,3.467
			c-10.271-6.736-17.932-5.791-27.981,3.453c-7.706,7.783-8.162,21.478-0.109,30.192c7.988,7.979,16.635,11.185,26.791,3.795
			c0.537-0.394,1.625-1.261,1.905-0.028c1.546,6.867,6.855,2.554,10.326,3.513c3.056,0.844,4.144-0.974,4.107-4.093
			C347.885,130.57,347.971,118.449,347.951,106.326z M323.588,134.145c-13.531,0-13.531-21.088,0-21.088
			S337.119,134.145,323.588,134.145z"/>
		<path fill="#FFFFFF" d="M299.791,134.727c-3.234,5.909-7.691,10.322-14.413,11.996c-0.935,0.233-2.151,0.278-2.14,1.643
			c0.014,1.25,1.078,1.613,2.055,1.81c5.551,1.115,8.749,4.259,7.768,10.15c-1.019,6.112-5.735,7.821-11.137,8.159
			c-2.604,0.164-5.232-0.068-7.841,0.06c-3.009,0.147-4.396-0.95-4.392-4.175c0.01-3.493,1.973-3.958,4.693-3.862
			c1.809,0.06,3.623,0.048,5.432-0.034c1.377-0.063,3.149-0.004,3.039-2.016c-0.106-1.893-1.84-2.027-3.217-1.837
			c-4.492,0.633-5.703-1.604-5.156-5.595c0.352-2.527-0.644-3.922-3.11-5.014c-11.479-5.08-15.478-12.765-14.089-26.34
			c0.865-8.421,7.668-15.852,16.063-17.545c11.733-2.37,20.334,1.516,26.439,11.946c1.644,3.133,0.008,4.59-2.817,4.958
			c-4.403,0.57-8.709,0.58-12.821-1.883c-4.963-2.979-8.06-2.358-10.276,1.449c-2.618,4.488-1.272,12.063,2.541,14.258
			c2.647,1.527,5.088,0.724,7.312-0.873c3.717-2.676,7.883-2.909,12.112-2.226C298.373,130.168,301.239,130.861,299.791,134.727z"/>
		<path fill="#FFFFFF" d="M200.437,124.511c0,6.071-0.125,12.146,0.052,18.212c0.09,3.17-1.16,4.903-4.166,4.063
			c-3.461-0.968-8.69,3.37-10.397-3.529c-0.354-1.428-1.893,0.39-2.775,0.898c-13.441,7.737-26.811,0.45-27.223-14.976
			c-0.206-7.688,0.054-15.386-0.121-23.07c-0.073-3.196,1.1-4.096,4.206-4.188c9.292-0.286,9.286-0.427,9.291,8.774
			c0.003,5.261-0.16,10.533,0.08,15.781c0.265,5.774,3.576,9.022,8.602,8.955c5.061-0.068,8.195-3.354,8.334-9.084
			c0.141-5.863,0.479-11.777-0.073-17.593c-0.564-5.94,1.893-7.55,7.151-6.778c0.987,0.145,2.022,0.115,3.018,0.006
			c3.297-0.367,4.134,1.308,4.064,4.313C200.335,112.365,200.439,118.438,200.437,124.511z"/>
		<path fill="#FFFFFF" d="M222.957,106.518c6.42-5.601,13.285-6.29,20.146-3.226c7.02,3.133,9.33,9.668,9.506,16.942
			c0.177,7.271-0.103,14.548,0.133,21.813c0.113,3.59-0.87,4.932-4.686,4.934c-8.922,0.004-8.92,0.213-8.922-8.513
			c-0.002-5.049,0.135-10.104-0.05-15.147c-0.245-6.754-3.256-9.938-8.887-9.809c-5.337,0.125-7.972,3.252-8.081,9.781
			c-0.083,4.846-0.02,9.693-0.02,14.546c-0.002,9.724,0.002,9.683-10.117,9.073c-2.174-0.132-3.981-0.148-3.969-3.123
			c0.063-12.928,0.027-25.855,0.031-38.784c0-1.026,0.135-2.021,1.068-2.666C212.221,100.193,221.257,102.751,222.957,106.518z"/>
		<path fill="#FFFFFF" d="M376.245,101.72c-14.269-0.147-23.528,8.646-23.596,22.402c-0.063,13.899,9.012,23.007,22.993,23.082
			c14.094,0.069,23.321-8.931,23.344-22.763C399.004,110.795,390.068,101.863,376.245,101.72z M375.454,133.939
			c-13.532,0-13.532-21.088,0-21.088C388.985,112.852,388.985,133.939,375.454,133.939z"/>
		<path fill="#FFFFFF" d="M133.89,129.836c-0.001-3.844,0.003-7.689-0.002-11.536c-0.004-2.222,0.098-4.106-2.688-5.362
			c-2.505-1.129-2.718-9.778-0.347-10.496c3.375-1.021,2.974-3.209,3.213-5.552c0.62-6.062,3.724-10.273,9.658-11.775
			c2.685-0.678,6.917-3.225,8.02,0.156c1.032,3.169,3.1,8.084-2.238,11.142c-2.369,1.357-4.352,4.805,0.992,5.512
			c3.012,0.396,3.058,2.286,2.774,4.295c-0.333,2.354,1.661,6.064-1.98,6.717c-4.175,0.748-3.841,3.26-3.831,6.135
			c0.031,7.693-0.3,15.4,0.105,23.07c0.343,6.481-4.058,4.515-7.26,4.713c-3.413,0.209-7.056,0.768-6.495-4.879
			C134.212,137.965,133.891,133.886,133.89,129.836z"/>
		<path fill="#FFFFFF" d="M330.392,97.869c-1.433-0.512-3.375-1.06-5.188-1.887c-3.073-1.398-5.931-2.645-8.525,0.956
			c-1.229,1.701-3.477,1.59-4.975,0.697c-2.135-1.274-0.676-3.222-0.018-4.819c2.701-6.508,7.636-8.468,14.179-5.52
			c3.34,1.504,6.386,3.597,9.433-0.793c0.848-1.219,3.6-1.152,5.026,0.116c1.409,1.253,0.357,3.016-0.228,4.472
			C338.431,95.232,335.371,97.509,330.392,97.869z"/>
		<path fill="#FFFFFF" d="M91.497,139.337c-5.487,1.09-7.348-1.442-6.665-6.319c0.661-4.713-1.523-6.258-5.83-5.572
			c-5.019,0.8-5.432-2.084-5.404-6.084c0.026-3.92,0.27-6.985,5.346-6.135c4.966,0.832,6.511-1.584,5.867-6.145
			c-0.795-5.643,2.567-5.982,6.939-6.082c4.5-0.104,6.992,0.919,6.132,5.971c-0.868,5.104,1.41,6.987,6.336,6.264
			c4.681-0.685,5.767,1.826,5.748,6.054c-0.019,4.122-0.85,6.825-5.642,6.14c-4.768-0.683-7.327,0.862-6.451,6.146
			C98.78,139.05,95.982,140.386,91.497,139.337z"/>
	</g>
</g>
</svg>
